<?xml version="1.0" encoding="UTF-8"?>
<svg width="20px" height="20px" viewBox="0 0 20 20" version="1.1" xmlns="http://www.w3.org/2000/svg" xmlns:xlink="http://www.w3.org/1999/xlink">
    <!-- Generator: Sketch 52.2 (67145) - http://www.bohemiancoding.com/sketch -->
    <title>untitled_89a26e01</title>
    <desc>Created with Sketch.</desc>
    <g id="后台页面内容" stroke="none" stroke-width="1" fill="none" fill-rule="evenodd">
        <g id="UI-kit" transform="translate(-334.000000, -107.000000)" fill="#9EA0A5" fill-rule="nonzero">
            <g id="0826闭眼(1)" transform="translate(334.000000, 107.000000)">
                <path d="M18.4215265,10.0595745 L17.6137427,9.04751433 C17.8310396,8.88584742 18.5790204,8.18567524 18.7874949,8.01568465 C19.0468255,7.80466049 19.0722926,7.43766876 18.8446493,7.1975289 C18.7261419,7.07172423 18.5546279,7 18.374744,7 C18.2229487,7 18.076402,7.05148146 17.9619931,7.14452302 C16.1177566,8.64620674 13.663238,10.1125814 11.7150353,10.4540474 C11.1520877,10.5528369 10.5766459,10.6027439 10.0059004,10.6027439 C9.01985428,10.6027439 8.02158997,10.4535475 7.03864791,10.159854 C5.6364514,9.73985467 4.50590869,9.09531127 3.80390316,8.62850507 C3.07851373,8.14667944 2.1208092,7.22036184 2.07532598,7.177228 C1.95626882,7.06336903 1.79645065,7.00049161 1.62543678,7.00049161 C1.46222056,7.00049161 1.30785041,7.05819576 1.19061829,7.16318301 C1.07056155,7.27079439 1.00273578,7.41531643 1.0001119,7.57018747 C0.996988026,7.72510687 1.05936561,7.87222935 1.1755488,7.98293839 C1.18776941,7.9948591 2.00672383,8.80006843 2.51374302,9.17638442 L1.80944673,10.0194822 C1.70703354,10.1421381 1.66232473,10.2939079 1.68339198,10.447802 C1.70495922,10.6016466 1.78917905,10.738373 1.92095656,10.832463 C2.02984227,10.9109596 2.16606871,10.9541191 2.30379318,10.9541191 C2.49924793,10.9541191 2.6795841,10.8724486 2.79891405,10.7295748 L3.52662844,9.858387 C4.23457335,10.2903066 4.97660626,10.6568001 5.73316039,10.9478962 L5.2671772,11.8803852 C5.12190443,12.1704554 5.2588552,12.5156067 5.57179314,12.6502589 C5.65496315,12.6861209 5.74330644,12.7037647 5.83427409,12.7037647 C6.07723663,12.7037647 6.30025728,12.572262 6.40239426,12.3679865 L6.91645914,11.3382327 C7.72969145,11.5622771 8.55619459,11.6984791 9.37407682,11.744761 L9.37407682,12.8077285 C9.37407682,13.1274127 9.65477646,13.3872951 9.9996762,13.3872951 C10.3448275,13.3872951 10.6255003,13.1274127 10.6255003,12.8077285 L10.6255003,11.7452347 C11.0611442,11.7213683 11.4987614,11.6714613 11.9270813,11.5966132 C12.4011603,11.5149926 12.8798624,11.4001088 13.351868,11.2550617 L13.8940229,12.3003869 C13.9979605,12.4994903 14.2194047,12.6283941 14.4585457,12.6283941 C14.5526369,12.6283941 14.6435542,12.609176 14.7293472,12.5706899 C15.0396607,12.4324397 15.1706374,12.084715 15.0219671,11.7966937 L14.520372,10.8314404 C15.2221186,10.5366958 15.9243659,10.1692034 16.6073957,9.73723494 L17.4151795,10.7492951 C17.5326373,10.8964171 17.7207943,10.9842356 17.9183474,10.9842356 C18.052949,10.9842356 18.181329,10.9452747 18.2894884,10.8704264 C18.4246149,10.7783845 18.5119334,10.6432331 18.5368986,10.4904374 C18.5618646,10.3371174 18.5213542,10.1837725 18.421515,10.0595679 L18.4215265,10.0595745 Z" id="路径"></path>
            </g>
        </g>
    </g>
</svg>