<?xml version="1.0" encoding="UTF-8"?>
<svg width="20px" height="20px" viewBox="0 0 20 20" version="1.1" xmlns="http://www.w3.org/2000/svg" xmlns:xlink="http://www.w3.org/1999/xlink">
    <!-- Generator: Sketch 52.2 (67145) - http://www.bohemiancoding.com/sketch -->
    <title>untitled_b4b45d06</title>
    <desc>Created with Sketch.</desc>
    <g id="后台页面内容" stroke="none" stroke-width="1" fill="none" fill-rule="evenodd">
        <g id="UI-kit" transform="translate(-377.000000, -107.000000)" fill="#9EA0A5" fill-rule="nonzero">
            <g id="眼睛" transform="translate(377.000000, 107.000000)">
                <path d="M11.6096838,7.07903873 C11.2513389,7.23110054 11,7.5861986 11,8 C11,8.55228475 11.4477153,9 12,9 C12.462634,9 12.8518921,8.68583995 12.9660758,8.25921816 C13.3658986,8.8392153 13.6,9.54226966 13.6,10.3 C13.6,12.2882282 11.9882202,13.8999997 10,13.9 C8.01177182,13.9 6.4000003,12.2882202 6.4,10.2999995 C6.4,8.31177182 8.01177982,6.7 10,6.7 C10.5785893,6.7 11.1252983,6.83649418 11.6096838,7.07903873 Z M9.99790632,16.599998 C6.34599979,16.599998 2.93894031,14.6524374 1.10984772,11.5164239 C0.883826401,11.128571 1.01776523,10.6328654 1.4091166,10.408866 C1.80046695,10.1848646 2.30064253,10.3176065 2.52666385,10.7054604 C4.06695267,13.3416091 6.92988189,14.9801445 10.0000006,14.9801445 C13.0701192,14.9801445 15.9330423,13.3416213 17.4733373,10.7054604 C17.6993586,10.3176075 18.1995321,10.1848667 18.5908845,10.408866 C18.9822349,10.6328674 19.1161727,11.128571 18.8901534,11.5164259 C17.0568744,14.6524252 13.6498292,16.6 9.99792268,16.6 L9.99790632,16.599998 Z M18.1826877,10.2999919 C17.9001296,10.2999919 17.6259433,10.1548782 17.4731517,9.89574745 C15.9347754,7.25881923 13.0715056,5.62111667 10.0010487,5.62111667 C6.93057142,5.62111667 4.06731389,7.25882733 2.52683901,9.89368105 C2.30079128,10.2813416 1.80055932,10.4140166 1.40916326,10.1901283 C1.01776719,9.96623801 0.883813743,9.47078026 1.10985942,9.08311968 C2.94125813,5.94867541 6.34870946,4 10.0010426,4 C13.6533757,4 17.0608332,5.94866933 18.8901394,9.08311968 C19.1161872,9.47078026 18.9822327,9.96624003 18.5908356,10.1901283 C18.4631609,10.2647582 18.3229287,10.3 18.1826959,10.3 Z" id="合并形状"></path>
            </g>
        </g>
    </g>
</svg>